<svg id="Layer_1" enable-background="new 0 0 512.005 512.005" height="512" viewBox="0 0 512.005 512.005" width="512" xmlns="http://www.w3.org/2000/svg"><path d="m492.004 472c-43.837 0-71.387-14.4-87.662-46.295 18.253-17.718 34.632-37.002 48.869-57.662 37.913-55.017 58.793-117.283 58.793-175.33 0-20.099-2.122-48.913-20.466-67.021-10.775-10.636-25.191-15.914-42.793-15.686-20.661.268-40.893 17.432-64.75 55.255l.009-82.549c0-23.808-3.381-41.008-10.641-54.129-7.213-13.038-22.074-28.58-51.906-28.58-23.909 0-45.668 16.892-66.146 51.481-1.701-8.686-4.245-16.097-7.701-22.515-7.114-13.214-21.843-28.969-51.606-28.969-23.384 0-44.855 16.333-65.248 49.74-4.965-31.067-24.61-49.74-53.752-49.74-18.047 0-43.574 9.59-62.699 55.277-9.755 23.305-13.835 46.318-14.004 47.286-1.898 10.881 5.385 21.241 16.266 23.139 10.885 1.897 21.241-5.385 23.139-16.266.034-.193 3.457-19.509 11.496-38.714 8.054-19.237 17.699-30.722 25.802-30.722 4.489 0 15 0 15 26v330c0 11.046 8.954 20 20 20s20-8.954 20-20v-250.687c2.476-7.677 10.677-31.988 22.533-55.837 18.153-36.518 33.684-49.476 41.467-49.476 9.77 0 21.928 0 21.928 43.009l.144 312.928c.005 11.043 8.958 19.991 20 19.991h.009c11.045-.005 19.996-8.963 19.991-20.009l-.115-249.789c2.414-7.724 10.439-32.244 22.163-56.296 17.926-36.778 33.47-49.828 41.333-49.828 10.045 0 22.547 0 22.547 42.707l-.025 235.286c-.001 11.045 8.952 20.001 19.998 20.002h.002c11.044 0 19.999-8.954 20-19.998l.007-67.467c2.6-5.798 12.777-28.038 25.811-50.61 25.336-43.875 38.373-49.42 39.845-49.925 9.537-.078 12.736 3.114 13.795 4.159 3.908 3.858 8.566 13.678 8.566 38.554 0 154.286-156 255.286-210.993 280.953-10.009 4.672-14.755 16.201-10.341 26.326 3.28 7.523 10.629 12.013 18.344 12.012 2.668 0 5.38-.537 7.982-1.671 35.26-15.372 67.68-34.79 96.542-57.635 9.088 15.169 20.405 27.312 34.234 36.742 22.26 15.18 49.813 22.559 84.231 22.559 11.046 0 20-8.954 20-20s-8.952-20-19.998-20z"/></svg>